# xmcd CD database file
#
# Track frame offsets:
#	180
#	31854
#	69436
#	91817
#	141105
#	169936
#	194899
#	209833
#
# Disc length: 3438 seconds
#
# Revision: 0
# Processed by: cddbd v1.5.2PL0 Copyright (c) Steve Scherf et al.
# Submitted via: CDex 1.51
#
DISCID=770d6c08
DTITLE=Leszek Dranicki Trio - Andaluzja
DYEAR=1998
DGENRE=Jazz
TTITLE0=Siedemnastka
TTITLE1=Serenada dla konajacego byka
TTITLE2=Walcowka
TTITLE3=Andaluzja
TTITLE4=Czekanie
TTITLE5=Habanera in Jazz
TTITLE6=Malaga Bitter
TTITLE7=Kujawiak Samosierra
EXTD=YEAR: 1998
EXTT0=
EXTT1=
EXTT2=
EXTT3=
EXTT4=
EXTT5=
EXTT6=
EXTT7=
PLAYORDER=
